<svg width="31" height="30" viewBox="0 0 31 30" fill="none" xmlns="http://www.w3.org/2000/svg"><mask id="a" style="mask-type:alpha" maskUnits="userSpaceOnUse" x="0" y="0" width="31" height="30"><circle cx="15.5" cy="15" r="15" fill="#fff"/></mask><g mask="url(#a)"><path d="M22.498 0L16-1.5 9.498 0C7.848 0 .5 6.6.5 8.25L-1.5 20c0 1.65 9.35 10 11 10h12.998c1.65 0 7.002-5.35 7.002-7l3-13.5c0-1.65-8.352-9.5-10.002-9.5zm-1.5 3v4.5h-3c-.9 0-1.5.6-1.5 1.5v3h4.5v4.5h-4.5V27h-4.5V16.5h-3V12h3V8.25c0-2.85 2.4-5.25 5.25-5.25h3.75z" fill="#2D2D2D"/></g></svg>