<svg width="41" height="40" viewBox="0 0 41 40" fill="none" xmlns="http://www.w3.org/2000/svg"><path d="M27.991 12.698c3.002 0 5.88 1.233 8.002 3.427 2.122 2.193 3.315 5.169 3.315 8.271v13.648h-7.545V24.396a3.967 3.967 0 00-1.105-2.757 3.71 3.71 0 00-2.667-1.142c-1 0-1.96.41-2.667 1.142a3.967 3.967 0 00-1.105 2.757v13.648h-7.544V24.396c0-3.102 1.192-6.078 3.314-8.271 2.123-2.194 5.001-3.427 8.002-3.427v0zM9.13 14.648H1.585v23.396H9.13V14.648zM5.358 8.799c2.083 0 3.772-1.746 3.772-3.9C9.13 2.746 7.44 1 5.358 1 3.274 1 1.585 2.746 1.585 4.9c0 2.153 1.69 3.899 3.773 3.899z" stroke="#fff" stroke-width="2" stroke-linecap="round" stroke-linejoin="round"/></svg>