<svg width="31" height="30" viewBox="0 0 31 30" fill="none" xmlns="http://www.w3.org/2000/svg"><rect x=".5" width="30" height="30" rx="15" fill="#2D2D2D"/><g clip-path="url(#clip0_302_683)" fill="#fff"><path d="M19.169 7H11.83a4.336 4.336 0 00-4.33 4.331v7.338A4.336 4.336 0 0011.831 23h7.338a4.336 4.336 0 004.331-4.331v-7.338A4.336 4.336 0 0019.169 7zM15.5 19.375A4.38 4.38 0 0111.125 15a4.38 4.38 0 014.375-4.375A4.38 4.38 0 0119.875 15a4.38 4.38 0 01-4.375 4.375zm4.48-7.718c-.713 0-1.293-.58-1.293-1.293s.58-1.293 1.293-1.293a1.294 1.294 0 010 2.586z"/><path d="M15.5 11.563A3.44 3.44 0 0012.065 15a3.441 3.441 0 003.437 3.437A3.44 3.44 0 0018.938 15a3.44 3.44 0 00-3.437-3.437zm4.48-1.553a.355.355 0 100 .71.355.355 0 000-.71z"/></g><defs><clipPath id="clip0_302_683"><path fill="#fff" transform="translate(7.5 7)" d="M0 0h16v16H0z"/></clipPath></defs></svg>