<svg width="40" height="41" viewBox="0 0 40 41" fill="none" xmlns="http://www.w3.org/2000/svg"><path d="M29.408 1H10.547c-5.209 0-9.43 4.365-9.43 9.749v19.497c0 5.384 4.221 9.75 9.43 9.75h18.86c5.21 0 9.431-4.366 9.431-9.75V10.75c0-5.384-4.222-9.749-9.43-9.749z" stroke="#fff" stroke-width="2" stroke-linecap="round" stroke-linejoin="round"/><path d="M27.523 19.268a8.029 8.029 0 01-.767 4.736 7.672 7.672 0 01-3.304 3.374 7.328 7.328 0 01-4.59.734 7.461 7.461 0 01-4.137-2.185 7.894 7.894 0 01-2.114-4.276 8.032 8.032 0 01.71-4.745 7.681 7.681 0 013.264-3.416 7.33 7.33 0 014.581-.792 7.458 7.458 0 014.228 2.2 7.897 7.897 0 012.129 4.37zm2.829-9.494h.019" stroke="#fff" stroke-width="2" stroke-linecap="round" stroke-linejoin="round"/></svg>