<svg width="31" height="30" viewBox="0 0 31 30" fill="none" xmlns="http://www.w3.org/2000/svg"><mask id="a" style="mask-type:alpha" maskUnits="userSpaceOnUse" x="0" y="0" width="31" height="30"><g clip-path="url(#clip0_302_689)"><path d="M28.336 0H2.664A2.164 2.164 0 00.5 2.164v25.672C.5 29.031 1.469 30 2.664 30h25.672a2.164 2.164 0 002.164-2.164V2.164A2.164 2.164 0 0028.336 0zM22.35 11.695c.006.148.01.296.01.445 0 4.55-3.463 9.796-9.796 9.796a9.746 9.746 0 01-5.278-1.546c.27.032.544.047.822.047 1.613 0 3.097-.55 4.276-1.474a3.447 3.447 0 01-3.217-2.39 3.425 3.425 0 001.555-.06 3.444 3.444 0 01-2.762-3.375v-.044c.465.258.995.414 1.56.43a3.44 3.44 0 01-1.066-4.596 9.775 9.775 0 007.097 3.598 3.444 3.444 0 015.867-3.14 6.906 6.906 0 002.186-.836 3.456 3.456 0 01-1.514 1.905 6.866 6.866 0 001.977-.543 6.994 6.994 0 01-1.717 1.783z" fill="#fff"/></g></mask><g mask="url(#a)"><circle cx="15.5" cy="15" r="15" fill="#2D2D2D"/></g><defs><clipPath id="clip0_302_689"><path fill="#fff" transform="translate(.5)" d="M0 0h30v30H0z"/></clipPath></defs></svg>