<svg width="41" height="40" viewBox="0 0 41 40" fill="none" xmlns="http://www.w3.org/2000/svg">
<path d="M27.9912 12.6982C30.9925 12.6982 33.8709 13.9307 35.9931 16.1245C38.1153 18.3183 39.3076 21.2938 39.3076 24.3963V38.0439H31.7634V24.3963C31.7634 23.3621 31.3659 22.3703 30.6585 21.639C29.9511 20.9077 28.9917 20.4969 27.9912 20.4969C26.9908 20.4969 26.0314 20.9077 25.324 21.639C24.6166 22.3703 24.2191 23.3621 24.2191 24.3963V38.0439H16.6749V24.3963C16.6749 21.2938 17.8672 18.3183 19.9894 16.1245C22.1116 13.9307 24.99 12.6982 27.9912 12.6982V12.6982Z" stroke="white" stroke-width="2" stroke-linecap="round" stroke-linejoin="round"/>
<path d="M9.12967 14.6475H1.58545V38.0439H9.12967V14.6475Z" stroke="white" stroke-width="2" stroke-linecap="round" stroke-linejoin="round"/>
<path d="M5.35756 8.79883C7.44084 8.79883 9.12967 7.053 9.12967 4.89941C9.12967 2.74583 7.44084 1 5.35756 1C3.27428 1 1.58545 2.74583 1.58545 4.89941C1.58545 7.053 3.27428 8.79883 5.35756 8.79883Z" stroke="white" stroke-width="2" stroke-linecap="round" stroke-linejoin="round"/>
</svg>
