<svg width="40" height="41" viewBox="0 0 40 41" fill="none" xmlns="http://www.w3.org/2000/svg">
<path d="M29.4078 1H10.5467C5.3384 1 1.11621 5.36468 1.11621 10.7488V30.2463C1.11621 35.6304 5.3384 39.9951 10.5467 39.9951H29.4078C34.6161 39.9951 38.8383 35.6304 38.8383 30.2463V10.7488C38.8383 5.36468 34.6161 1 29.4078 1Z" stroke="white" stroke-width="2" stroke-linecap="round" stroke-linejoin="round"/>
<path d="M27.5225 19.2682C27.7553 20.8908 27.4871 22.548 26.7563 24.004C26.0254 25.4601 24.869 26.6408 23.4516 27.3783C22.0341 28.1158 20.4278 28.3725 18.8611 28.1119C17.2944 27.8513 15.8471 27.0866 14.725 25.9267C13.6029 24.7668 12.8632 23.2707 12.6111 21.6511C12.359 20.0316 12.6073 18.3711 13.3207 16.9058C14.0342 15.4406 15.1764 14.2452 16.585 13.4897C17.9935 12.7342 19.5966 12.457 21.1663 12.6976C22.7675 12.9431 24.2498 13.7143 25.3944 14.8975C26.539 16.0807 27.2851 17.613 27.5225 19.2682Z" stroke="white" stroke-width="2" stroke-linecap="round" stroke-linejoin="round"/>
<path d="M30.3517 9.77441H30.3706" stroke="white" stroke-width="2" stroke-linecap="round" stroke-linejoin="round"/>
</svg>
